<svg width="119" height="136" viewBox="0 0 119 136" fill="none" xmlns="http://www.w3.org/2000/svg">
<g clip-path="url(#clip0)">
<g clip-path="url(#clip1)">
<path opacity="0.5" d="M104.036 45.1341C107.493 102.222 -3.64568 111.639 16.8051 27.0741C26.5459 -3.82825 96.9766 -20.2406 104.036 45.1341Z" fill="#D16228"/>
<path opacity="0.5" d="M96.0551 44.924C99.092 97.004 7.77436 106.018 24.2836 28.7863C32.1828 0.533189 90.0297 -14.6999 96.0551 44.924Z" fill="#D16228"/>
<path opacity="0.5" d="M57.9484 11.8892C96.5237 10.3223 111.434 84.5331 47.7068 76.8761C25.7537 68.7185 11.6676 22.0661 57.9484 11.8892Z" fill="#D16228"/>
<path d="M47.9169 30.6924H53.91C54.6531 30.6924 55.3477 31.1285 55.6708 31.807L64.8946 51.3532H64.9754L67.6408 32.3562C67.7538 31.4032 68.5777 30.6924 69.5469 30.6924H72.18C73.3592 30.6924 74.2638 31.7262 74.1023 32.9055L70.4838 58.7678C70.3546 59.7208 69.5308 60.4316 68.5615 60.4316H62.9077C62.1646 60.4316 61.47 59.9955 61.1631 59.317L51.6484 39.2539H51.5677L48.8538 58.7516C48.7246 59.7047 47.9008 60.4316 46.9315 60.4316H44.2984C43.1192 60.4316 42.2146 59.3978 42.3761 58.2185L45.9946 32.3562C46.1238 31.4032 46.9477 30.6924 47.9169 30.6924Z" fill="white"/>
<path d="M75.7662 60.4318C77.1758 60.4318 78.3185 59.2891 78.3185 57.8795C78.3185 56.4699 77.1758 55.3271 75.7662 55.3271C74.3566 55.3271 73.2139 56.4699 73.2139 57.8795C73.2139 59.2891 74.3566 60.4318 75.7662 60.4318Z" fill="#189B73"/>
</g>
<g clip-path="url(#clip2)">
<path d="M0 103.282H7.2415L17.5377 120.245H17.6018V103.282H22.9421V127.702H15.9569L5.40442 110.309H5.34034V127.681H0V103.282Z" fill="#3A7563"/>
<path d="M43.5343 124.793C42.7226 125.849 41.6759 126.668 40.4156 127.25C39.1552 127.832 37.8736 128.112 36.5278 128.112C35.2461 128.112 34.0499 127.897 32.9177 127.487C31.7856 127.078 30.8029 126.474 29.9698 125.72C29.1368 124.944 28.4746 124.017 28.0046 122.939C27.5347 121.862 27.2783 120.655 27.2783 119.318C27.2783 117.982 27.5133 116.775 28.0046 115.697C28.4746 114.62 29.1368 113.693 29.9698 112.917C30.8029 112.141 31.7856 111.559 32.9177 111.149C34.0499 110.74 35.2461 110.524 36.5278 110.524C37.7027 110.524 38.7921 110.74 39.7533 111.149C40.7146 111.559 41.5477 112.162 42.2099 112.917C42.8721 113.671 43.4061 114.62 43.7693 115.697C44.1324 116.775 44.3247 117.982 44.3247 119.318V120.935H32.4264C32.64 121.926 33.0672 122.702 33.7508 123.306C34.4344 123.909 35.2675 124.189 36.2714 124.189C37.1045 124.189 37.8308 123.995 38.4076 123.629C38.9843 123.241 39.497 122.767 39.9242 122.163L43.5343 124.793ZM39.198 117.422C39.2193 116.538 38.9416 115.805 38.3435 115.18C37.7454 114.555 36.9977 114.253 36.0578 114.253C35.4811 114.253 34.9898 114.339 34.5625 114.533C34.1353 114.727 33.7508 114.943 33.4517 115.245C33.1527 115.525 32.8964 115.87 32.7255 116.236C32.5546 116.624 32.4478 117.012 32.4264 117.422H39.198Z" fill="#3A7563"/>
<path d="M57.6328 130.418C57.291 131.324 56.9706 132.1 56.6502 132.789C56.3298 133.479 55.9239 134.061 55.4326 134.535C54.9413 135.009 54.3218 135.354 53.5741 135.613C52.8265 135.85 51.8225 135.979 50.6049 135.979C49.2805 135.979 47.9988 135.764 46.7812 135.354L47.4648 131.108C48.2338 131.453 49.0455 131.625 49.8573 131.625C50.434 131.625 50.904 131.561 51.2671 131.431C51.6303 131.302 51.9293 131.13 52.1643 130.871C52.3993 130.634 52.6129 130.332 52.7624 129.987C52.9119 129.643 53.0828 129.233 53.2751 128.78L53.6596 127.81L46.354 110.934H51.8866L56.1589 122.013H56.2229L59.8757 110.934H65.1306L57.6328 130.418Z" fill="#3A7563"/>
<path d="M68.3135 103.282H76.3881L81.9634 119.21H82.0275L87.6241 103.282H95.656V127.702H90.3157V108.972H90.2516L83.8859 127.702H79.8272L73.7179 108.972H73.6538V127.702H68.3135V103.282Z" fill="#3A7563"/>
<path d="M99.9287 119.318C99.9287 117.982 100.164 116.775 100.655 115.697C101.125 114.62 101.787 113.693 102.62 112.917C103.453 112.141 104.436 111.559 105.568 111.149C106.7 110.74 107.896 110.524 109.178 110.524C110.46 110.524 111.656 110.74 112.788 111.149C113.92 111.559 114.903 112.162 115.736 112.917C116.569 113.693 117.231 114.62 117.701 115.697C118.171 116.775 118.428 117.982 118.428 119.318C118.428 120.655 118.193 121.862 117.701 122.939C117.231 124.017 116.569 124.944 115.736 125.72C114.903 126.496 113.92 127.078 112.788 127.487C111.656 127.897 110.46 128.112 109.178 128.112C107.896 128.112 106.7 127.897 105.568 127.487C104.436 127.078 103.453 126.474 102.62 125.72C101.787 124.944 101.125 124.017 100.655 122.939C100.185 121.862 99.9287 120.655 99.9287 119.318ZM105.055 119.318C105.055 120.59 105.419 121.603 106.124 122.379C106.828 123.155 107.854 123.543 109.157 123.543C110.46 123.543 111.464 123.155 112.19 122.379C112.916 121.603 113.258 120.568 113.258 119.318C113.258 118.047 112.895 117.034 112.19 116.258C111.464 115.482 110.46 115.094 109.157 115.094C107.854 115.094 106.85 115.482 106.124 116.258C105.419 117.034 105.055 118.047 105.055 119.318Z" fill="#3A7563"/>
</g>
</g>
<defs>
<clipPath id="clip0">
<rect width="118.385" height="135.979" fill="white"/>
</clipPath>
<clipPath id="clip1">
<rect width="89.8154" height="89.2823" fill="white" transform="translate(14.2847)"/>
</clipPath>
<clipPath id="clip2">
<rect width="118.385" height="32.6967" fill="white" transform="translate(0 103.282)"/>
</clipPath>
</defs>
</svg>
